<svg width="1177" height="500" viewBox="0 0 1177 500" fill="none" xmlns="http://www.w3.org/2000/svg">
<rect x="5.5" y="465.965" width="575.046" height="28.5349" rx="14.2674" fill="#435FB3" stroke="white" stroke-width="11"/>
<rect x="557.008" y="493.512" width="480.238" height="26.5739" rx="13.287" transform="rotate(-91.1489 557.008 493.512)" fill="#435FB3" stroke="white" stroke-width="11"/>
<rect x="269.937" y="133.987" width="323.723" height="26.7992" rx="13.3996" transform="rotate(-23.0545 269.937 133.987)" fill="#435FB3" stroke="white" stroke-width="11"/>
<rect x="295.239" y="125.77" width="335.334" height="26.5469" rx="13.2734" transform="rotate(77.6197 295.239 125.77)" fill="#435FB3" stroke="white" stroke-width="11"/>
<rect x="412.765" y="80.1154" width="318.054" height="26.5469" rx="13.2734" transform="rotate(84.2465 412.765 80.1154)" fill="#435FB3" stroke="white" stroke-width="11"/>
<rect x="498.672" y="456.061" width="159.332" height="25.8704" rx="12.9352" transform="rotate(177.776 498.672 456.061)" fill="#435FB3" stroke="white" stroke-width="11"/>
<rect x="425.612" y="214.375" width="134.36" height="25.8704" rx="12.9352" transform="rotate(166.658 425.612 214.375)" fill="#435FB3" stroke="white" stroke-width="11"/>
<rect x="338.51" y="421.927" width="16.0427" height="29.3782" transform="rotate(-12.2902 338.51 421.927)" fill="#435FB3"/>
<rect x="291.525" y="207.895" width="16.0427" height="44.3395" transform="rotate(-12.2902 291.525 207.895)" fill="#435FB3"/>
<rect x="401.708" y="180.975" width="16.215" height="44.3395" transform="rotate(-5.29838 401.708 180.975)" fill="#435FB3"/>
<rect x="417.316" y="76.7139" width="16.4055" height="44.3395" transform="rotate(66.6738 417.316 76.7139)" fill="#435FB3"/>
<rect x="552.687" y="20.1348" width="16.0933" height="44.3395" rx="2" transform="rotate(-1.30602 552.687 20.1348)" fill="#435FB3"/>
<rect x="533.944" y="488.572" width="16.6742" height="39.0564" rx="2" transform="rotate(-90.7741 533.944 488.572)" fill="#435FB3"/>
<rect x="309.123" y="122.77" width="16.5428" height="32.4078" rx="2" transform="rotate(66.3502 309.123 122.77)" fill="#435FB3"/>
<rect x="-5.5" y="5.5" width="572.72" height="28.5349" rx="14.2674" transform="matrix(-1 0 0 1 1165.74 460.465)" fill="#B9D70B" stroke="white" stroke-width="11"/>
<rect x="-5.38862" y="-5.60917" width="480.238" height="26.5739" rx="13.287" transform="matrix(0.0200501 -0.999799 -0.999799 -0.0200501 616.561 488.011)" fill="#B9D70B" stroke="white" stroke-width="11"/>
<rect x="-7.21457" y="2.9069" width="323.723" height="26.7992" rx="13.3996" transform="matrix(-0.920133 -0.391606 -0.391606 0.920133 903.632 128.487)" fill="#B9D70B" stroke="white" stroke-width="11"/>
<rect x="4.19291" y="6.5513" width="335.334" height="26.5469" rx="13.2734" transform="matrix(-0.214399 0.976746 0.976746 0.214399 878.33 120.27)" fill="#B9D70B" stroke="white" stroke-width="11"/>
<rect x="4.92092" y="6.02366" width="318.054" height="26.5469" rx="13.2734" transform="matrix(-0.100249 0.994962 0.994962 0.100249 760.804 74.6154)" fill="#B9D70B" stroke="white" stroke-width="11"/>
<rect x="5.70926" y="-5.28246" width="159.332" height="25.8704" rx="12.9352" transform="matrix(0.999247 0.0388004 0.0388004 -0.999247 674.896 450.561)" fill="#B9D70B" stroke="white" stroke-width="11"/>
<rect x="6.62075" y="-4.08236" width="134.36" height="25.8704" rx="12.9352" transform="matrix(0.97301 0.230763 0.230763 -0.97301 747.957 208.875)" fill="#B9D70B" stroke="white" stroke-width="11"/>
<rect width="16.0427" height="29.3782" transform="matrix(-0.977082 -0.212864 -0.212864 0.977082 840.558 421.927)" fill="#B9D70B"/>
<rect width="16.0427" height="44.3395" transform="matrix(-0.977082 -0.212864 -0.212864 0.977082 887.544 207.895)" fill="#B9D70B"/>
<rect width="16.215" height="44.3395" transform="matrix(-0.995727 -0.0923424 -0.0923424 0.995727 777.361 180.975)" fill="#B9D70B"/>
<rect width="16.4055" height="44.3395" transform="matrix(-0.395966 0.918265 0.918265 0.395966 761.753 76.7138)" fill="#B9D70B"/>
<rect width="16.0933" height="44.3395" rx="2" transform="matrix(-0.99974 -0.0227923 -0.0227923 0.99974 626.382 20.1348)" fill="#B9D70B"/>
<rect width="16.6742" height="39.0564" rx="2" transform="matrix(0.0135106 -0.999909 -0.999909 -0.0135106 645.124 488.572)" fill="#B9D70B"/>
<rect width="16.5428" height="32.4078" rx="2" transform="matrix(-0.401145 0.916014 0.916014 0.401145 869.946 122.77)" fill="#B9D70B"/>
</svg>
