<svg width="985" height="215" viewBox="0 0 985 215" fill="none" xmlns="http://www.w3.org/2000/svg">
<rect x="2.25" y="200.487" width="486.187" height="11.8562" rx="5.92812" fill="#435FB3" stroke="white" stroke-width="4.5"/>
<rect x="478.401" y="212.328" width="206.733" height="11.6568" rx="5.8284" transform="rotate(-91.1489 478.401 212.328)" fill="#435FB3" stroke="white" stroke-width="4.5"/>
<rect x="354.922" y="57.5535" width="139.431" height="11.7537" rx="5.87683" transform="rotate(-23.0545 354.922 57.5535)" fill="#435FB3" stroke="white" stroke-width="4.5"/>
<rect x="366.041" y="53.9442" width="144.424" height="11.6452" rx="5.82259" transform="rotate(77.6197 366.041 53.9442)" fill="#435FB3" stroke="white" stroke-width="4.5"/>
<rect x="416.592" y="34.3236" width="136.993" height="11.6452" rx="5.82259" transform="rotate(84.2465 416.592 34.3236)" fill="#435FB3" stroke="white" stroke-width="4.5"/>
<rect x="453.549" y="196.217" width="68.7427" height="11.3543" rx="5.67715" transform="rotate(177.776 453.549 196.217)" fill="#435FB3" stroke="white" stroke-width="4.5"/>
<rect x="422.152" y="92.2662" width="58.005" height="11.3543" rx="5.67715" transform="rotate(166.658 422.152 92.2662)" fill="#435FB3" stroke="white" stroke-width="4.5"/>
<rect x="384.56" y="181.429" width="6.89836" height="12.6327" transform="rotate(-12.2902 384.56 181.429)" fill="#435FB3"/>
<rect x="364.356" y="89.3944" width="6.89836" height="19.066" transform="rotate(-12.2902 364.356 89.3944)" fill="#435FB3"/>
<rect x="411.734" y="77.8188" width="6.97245" height="19.066" transform="rotate(-5.29838 411.734 77.8188)" fill="#435FB3"/>
<rect x="418.446" y="32.9869" width="7.05437" height="19.066" transform="rotate(66.6738 418.446 32.9869)" fill="#435FB3"/>
<rect x="476.656" y="8.65778" width="6.9201" height="19.066" rx="2" transform="rotate(-1.30602 476.656 8.65778)" fill="#435FB3"/>
<rect x="468.596" y="210.086" width="7.16993" height="16.7943" rx="2" transform="rotate(-90.7741 468.596 210.086)" fill="#435FB3"/>
<rect x="371.923" y="52.7911" width="7.11342" height="13.9354" rx="2" transform="rotate(66.3502 371.923 52.7911)" fill="#435FB3"/>
<rect x="-2.25" y="2.25" width="486.187" height="11.8562" rx="5.92812" transform="matrix(-1 0 0 1 980.5 198.237)" fill="#B9D70B" stroke="white" stroke-width="4.5"/>
<rect x="-2.20444" y="-2.29466" width="206.733" height="11.6568" rx="5.8284" transform="matrix(0.0200501 -0.999799 -0.999799 -0.0200501 504.349 210.078)" fill="#B9D70B" stroke="white" stroke-width="4.5"/>
<rect x="-2.95141" y="1.18918" width="139.431" height="11.7537" rx="5.87683" transform="matrix(-0.920133 -0.391606 -0.391606 0.920133 627.828 55.3035)" fill="#B9D70B" stroke="white" stroke-width="4.5"/>
<rect x="1.71528" y="2.68008" width="144.424" height="11.6452" rx="5.82259" transform="matrix(-0.214399 0.976746 0.976746 0.214399 616.709 51.6942)" fill="#B9D70B" stroke="white" stroke-width="4.5"/>
<rect x="2.0131" y="2.46423" width="136.993" height="11.6452" rx="5.82259" transform="matrix(-0.100249 0.994962 0.994962 0.100249 566.158 32.0736)" fill="#B9D70B" stroke="white" stroke-width="4.5"/>
<rect x="2.33561" y="-2.161" width="68.7427" height="11.3543" rx="5.67715" transform="matrix(0.999247 0.0388004 0.0388004 -0.999247 529.201 193.967)" fill="#B9D70B" stroke="white" stroke-width="4.5"/>
<rect x="2.70849" y="-1.67005" width="58.005" height="11.3543" rx="5.67715" transform="matrix(0.97301 0.230763 0.230763 -0.97301 560.598 90.0162)" fill="#B9D70B" stroke="white" stroke-width="4.5"/>
<rect width="6.89836" height="12.6327" transform="matrix(-0.977082 -0.212864 -0.212864 0.977082 600.44 181.429)" fill="#B9D70B"/>
<rect width="6.89836" height="19.066" transform="matrix(-0.977082 -0.212864 -0.212864 0.977082 620.644 89.3944)" fill="#B9D70B"/>
<rect width="6.97245" height="19.066" transform="matrix(-0.995727 -0.0923424 -0.0923424 0.995727 573.266 77.8188)" fill="#B9D70B"/>
<rect width="7.05437" height="19.066" transform="matrix(-0.395966 0.918265 0.918265 0.395966 566.554 32.9869)" fill="#B9D70B"/>
<rect width="6.9201" height="19.066" rx="2" transform="matrix(-0.99974 -0.0227923 -0.0227923 0.99974 508.344 8.65778)" fill="#B9D70B"/>
<rect width="7.16993" height="16.7943" rx="2" transform="matrix(0.0135106 -0.999909 -0.999909 -0.0135106 516.404 210.086)" fill="#B9D70B"/>
<rect width="7.11342" height="13.9354" rx="2" transform="matrix(-0.401145 0.916014 0.916014 0.401145 613.077 52.7911)" fill="#B9D70B"/>
</svg>
